<?xml version="1.0"?>

<svg xmlns="http://www.w3.org/2000/svg" version="1.1" width="100%" height="100%">
  <title>SVG - Musica Erudita_site</title>
  <desc>Apresentação do Coro Sinfônico Comunitário da UnB - Requiem, 1º semestre de 2018</desc>
 
  
  <line x1="10" y1="20" x2="250" y2="20" stroke="#e8ded9" stroke-width="4" />
	<line x1="10" y1="50" x2="250" y2="50" stroke="#e8ded9" stroke-width="4" />
	<line x1="10" y1="80" x2="250" y2="80" stroke="#e8ded9" stroke-width="4" />
	<line x1="10" y1="110" x2="250" y2="110" stroke="#e8ded9" stroke-width="4" />
  <line x1="10" y1="140" x2="250" y2="140" stroke="#e8ded9" stroke-width="4" />
	<!--#bfa195-->
	
	<!--Semínima tipo-03-->
	d="M 430 55 L 430 65 430 75 C 410 70 420 85 431 75"
	<path d="M 350 55 L 350 65 350 75 C 330 70 340 85 351 75" stroke="black" stroke-width="5" fill="black">
	  <animateMotion
		  from="0,0"
			to="-650,0"
			begin="0s"
			dur="18s"
			fill="freeze"
			
		/>
	</path><!-- 0 repeatCount="indefinite"-->
	
	<!--Colcheia tipo-01-->
	<path d="M 430 110 L 420 105 L 420 115 420 125 C 400 120 410 135 421 125" stroke="black" stroke-width="5" fill="black">
	  <animateMotion
		  from="0,0"
			to="-650,0"
			begin="1s"
			dur="18s"
			fill="freeze"
			repeatCount="indefinite"
		/>
	</path><!-- 1 -->
	
	<!--Semínima tipo-04-->
	<path d="M 430 80 L 430 90 430 100 C 410 95 420 111 431 100" stroke="black" stroke-width="5" fill="black">
	  <animateMotion
		  from="0,0"
			to="-650,0"
			begin="3s"
			dur="18s"
			fill="freeze"
			
		/>
	</path><!-- 2 repeatCount="indefinite"-->
	
	<!--Colcheia tipo-02-->
	<path d="M 430 110 L 420 105 L 420 115 420 125 C 398 124 410 135 421 125" stroke="black" stroke-width="5" fill="black">
	  <animateMotion
		  from="0,0"
			to="-650,0"
			begin="4.5s"
			dur="18s"
			fill="freeze"
			repeatCount="indefinite"
		/>
	</path><!-- 3 -->
	
	<!--Semibreve tipo-02-->
	<ellipse cx="430" cy="90" rx="5" ry="4" stroke="black" stroke-width="4" fill="#fbfba9">
	  <animateMotion
		  from="0,0"
			to="-650,0"
			begin="7.5s"
			dur="18s"
			fill="freeze"
			repeatCount="indefinite"
		/>
	</ellipse><!-- 4 -->
	
	<!--Semínima tipo-03-->
	<path d="M 430 55 L 430 65 430 75 C 410 70 420 85 431 75" stroke="black" stroke-width="5" fill="black">
	  <animateMotion
		  from="0,0"
			to="-650,0"
			begin="9.5s"
			dur="18s"
			fill="freeze"
			repeatCount="indefinite"
		/>
	</path><!-- 5 -->
	
	<!--Semínima tipo-01-->
	<path d="M 430 55 L 430 65 430 75 Q 410 80 433 80" stroke="black" stroke-width="5" fill="black">
	  <animateMotion
		  from="0,0"
			to="-650,0"
			begin="11.5s"
			dur="18s"
			fill="freeze"
			repeatCount="indefinite"
		/>
	</path><!-- 6 -->
	
	<!--Semínima tipo-03-->
	<path d="M 430 28 L 430 38 430 48 C 410 43 420 58 431 48" stroke="black" stroke-width="5" fill="black">
	  <animateMotion
		  from="0,0"
			to="-650,0"
			begin="13.5s"
			dur="18s"
			fill="freeze"
			repeatCount="indefinite"
		/>
	</path><!-- 7 -->
	
	<!--Colcheia tipo-01-->
	<path d="M 430 25 L 420 20 L 420 30 420 40 C 400 35 410 50 421 40" stroke="black" stroke-width="5" fill="black">
	  <animateMotion
		  from="0,0"
			to="-650,0"
			begin="15.5s"
			dur="18s"
			fill="freeze"
			repeatCount="indefinite"
		/>
	</path><!-- 8 -->
	
	<!--Semínima tipo-02-->
	<path d="M 430 75 L 430 95 Q 410 100 433 100" stroke="black" stroke-width="5" fill="#fbfba9">
	  <animateMotion
		  from="0,0"
			to="-650,0"
			begin="17.5s"
			dur="18s"
			fill="freeze"
			repeatCount="indefinite"
		/>
	</path><!-- 9 -->
	
	<!--Semibreve tipo-01-->
  <ellipse cx="430" cy="130" rx="6" ry="4" stroke="black" stroke-width="4" fill="#fbfba9">
	  <animateMotion
		  from="0,0"
			to="-650,0"
			begin="19.5s"
			dur="18s"
			fill="freeze"
			repeatCount="indefinite"
		/>
	</ellipse><!-- 10 -->
	
	
</svg>





